<svg xmlns="http://www.w3.org/2000/svg" viewBox="0 0 312.74 222.84"><defs><style>.cls-1{fill:#b5d7e0;}.cls-2{fill:#828282;}.cls-3,.cls-8{fill:#fff;}.cls-3,.cls-6,.cls-9{stroke:#828282;stroke-linecap:round;stroke-linejoin:round;}.cls-3,.cls-6{stroke-width:3px;}.cls-4{fill:#d8ebf0;}.cls-5{fill:#ebeff0;}.cls-6{fill:#73d6f0;}.cls-7{fill:#5ac4e0;}.cls-9{fill:none;stroke-width:10px;}</style></defs><title>404graf</title><g id="Ebene_2" data-name="Ebene 2"><g id="OBJECTS"><polygon class="cls-1" points="6.34 182.54 32 164.92 292.5 171.03 292.5 184.61 230.83 184.61 248.25 222.68 242.42 218.47 204.3 193.8 123.51 190.08 87.98 222.68 87.98 222.68 106.43 193.88 6.34 182.54"/><path class="cls-2" d="M109.9,177.14S89.16,216.4,89.23,215.71s4.58,2.76,4.58,2.76l27.85-41.33Z"/><path class="cls-2" d="M78.64,217.54l-5.9-15a8.34,8.34,0,0,1,5.8-11.15l4.27-1a8.34,8.34,0,0,1,10.26,7.26l1.62,16.08a8.32,8.32,0,0,1-6.71,9h0A8.32,8.32,0,0,1,78.64,217.54Z"/><path class="cls-2" d="M226.34,177.14S247.07,216.4,247,215.71s-4.59,2.76-4.59,2.76l-27.84-41.33Z"/><path class="cls-2" d="M257.6,217.54l5.89-15a8.34,8.34,0,0,0-5.8-11.15l-4.27-1a8.33,8.33,0,0,0-10.25,7.26l-1.63,16.08a8.33,8.33,0,0,0,6.71,9h0A8.34,8.34,0,0,0,257.6,217.54Z"/><polygon class="cls-2" points="55.55 94.7 8.45 87.37 8.45 91.03 55.55 106.53 55.55 94.7"/><path class="cls-2" d="M291.91,53.09h0a9.53,9.53,0,0,1-9.05-9.93l.3-6.56a9.54,9.54,0,0,1,9.94-9h0a9.53,9.53,0,0,1,9,9.93L301.84,44A9.53,9.53,0,0,1,291.91,53.09Z"/><path class="cls-2" d="M280.6,88l12.33-7.86a15.44,15.44,0,0,0,5.16-20.58L290.3,45.71h6L308.87,60a15.43,15.43,0,0,1-2.08,22.4l-19.52,15.2Z"/><polygon class="cls-3" points="55.67 177.14 46.03 1.5 292.5 1.5 282.25 177.14 55.67 177.14"/><polygon class="cls-4" points="230.83 37.1 273 37.1 273.39 39.56 230.83 39.88 230.83 37.1"/><polygon class="cls-4" points="230.83 44.88 273 44.88 273.39 47.33 230.83 47.66 230.83 44.88"/><polygon class="cls-4" points="230.83 52.65 273 52.65 273.39 55.1 230.83 55.43 230.83 52.65"/><polygon class="cls-4" points="230.83 60.42 262.46 60.42 262.76 62.88 230.83 63.21 230.83 60.42"/><path class="cls-5" d="M54.23,30.45l21.7,114.17a18,18,0,0,0,16.42,14.57L270.9,171.36H61.58Z"/><polygon class="cls-6" points="46.03 1.5 48.22 22.99 289.98 22.99 292.5 1.5 46.03 1.5"/><polygon class="cls-7" points="55.55 12.14 228.65 15.78 227.61 18.89 54.23 18.89 55.55 12.14"/><circle class="cls-8" cx="245.18" cy="12.14" r="4.68"/><circle class="cls-8" cx="260.38" cy="12.14" r="4.68"/><circle class="cls-8" cx="275.58" cy="12.14" r="4.68"/><line class="cls-9" x1="102.72" y1="60.32" x2="138.78" y2="88.4"/><line class="cls-9" x1="138.78" y1="60.32" x2="102.72" y2="88.4"/><line class="cls-9" x1="194.66" y1="61.49" x2="230.72" y2="89.57"/><line class="cls-9" x1="230.72" y1="61.49" x2="194.66" y2="89.57"/><path class="cls-9" d="M134.8,133.9a50.27,50.27,0,0,1,71.09,0"/><path class="cls-2" d="M9.06,104.31h0a9.53,9.53,0,0,1-9-9.93l.31-6.56a9.53,9.53,0,0,1,9.93-9h0A9.53,9.53,0,0,1,19.3,88.7L19,95.26A9.53,9.53,0,0,1,9.06,104.31Z"/><polygon class="cls-7" points="54.23 18.89 51.81 5.29 65.8 18.89 54.23 18.89"/><polygon class="cls-4" points="228.65 155.59 228.65 109.98 275.58 109.98 271.94 157.15 228.65 155.59"/><polygon class="cls-4" points="66.84 47.79 65.8 30.45 103.11 30.45 101.41 48.83 66.84 47.79"/><rect class="cls-4" x="76.8" y="111.92" width="16.21" height="12.65"/><rect class="cls-4" x="97.91" y="111.92" width="16.21" height="12.65"/><rect class="cls-4" x="76.8" y="128.51" width="16.21" height="12.65"/><rect class="cls-4" x="97.91" y="128.51" width="16.21" height="12.65"/></g></g></svg>