<?xml version="1.0" encoding="UTF-8"?>
<svg width="1014px" height="257px" viewBox="0 0 1014 257" version="1.1" xmlns="http://www.w3.org/2000/svg" xmlns:xlink="http://www.w3.org/1999/xlink">
    <!-- Generator: Sketch 55.2 (78181) - https://sketchapp.com -->
    <title>icon-slack_full</title>
    <desc>Created with Sketch.</desc>
    <g id="Page-1" stroke="none" stroke-width="1" fill="none" fill-rule="evenodd">
        <g id="icon-slack_full" fill-rule="nonzero">
            <path d="M324.51,202.44 L337.09,173.1 C350.86,183.28 368.83,188.67 386.79,188.67 C399.96,188.67 408.35,183.58 408.35,175.8 C408.05,154.24 329.01,171.01 328.41,116.82 C328.11,89.28 352.66,68.02 387.4,68.02 C408.06,68.02 428.72,73.11 443.39,84.79 L431.64,114.76 C418.14,106.1 401.47,100.06 385.61,100.06 C374.83,100.06 367.64,105.15 367.64,111.74 C367.94,133 447.58,121.32 448.48,173.12 C448.48,201.26 424.52,221.02 390.39,221.02 C365.23,221 342.18,215.01 324.51,202.44" id="Path" fill="#FFFFFF"></path>
            <path d="M810.13,162.47 C803.86,173.55 791.97,181.03 778.33,181.03 C758.16,181.03 741.8,164.68 741.8,144.5 C741.8,124.32 758.15,107.97 778.33,107.97 C791.97,107.97 803.86,115.45 810.13,126.53 L845.09,107.16 C832,83.8 807.01,68 778.33,68 C736.08,68 701.83,102.25 701.83,144.5 C701.83,186.75 736.08,221 778.33,221 C807.02,221 832,205.2 845.09,181.84 L810.13,162.47 Z" id="Path" fill="#FFFFFF"></path>
            <rect id="Rectangle" fill="#FFFFFF" x="466.09" y="4.32" width="43.72" height="213.68"></rect>
            <polygon id="Path" fill="#FFFFFF" points="862.1 4.32 862.1 218.01 905.82 218.01 905.82 153.98 957.62 218.01 1013.49 218.01 947.62 141.95 1008.7 70.99 955.22 70.99 905.82 129.98 905.82 4.32"></polygon>
            <path d="M639.42,162.76 C633.13,173.24 619.96,181.02 605.29,181.02 C585.12,181.02 568.76,164.67 568.76,144.49 C568.76,124.31 585.12,107.96 605.29,107.96 C619.96,107.96 633.13,116.04 639.42,126.82 L639.42,162.76 Z M639.42,70.99 L639.42,88.36 C632.23,76.38 614.57,68 596,68 C557.67,68 527.43,101.83 527.43,144.35 C527.43,186.87 557.67,221 596,221 C614.56,221 632.23,212.62 639.41,200.64 L639.41,218 L683.12,218 L683.12,70.99 L639.42,70.99 Z" id="Shape" fill="#FFFFFF"></path>
            <path d="M54.51,162.5 C54.51,177.41 42.42,189.5 27.51,189.5 C12.6,189.5 0.51,177.41 0.51,162.5 C0.51,147.59 12.6,135.5 27.51,135.5 L54.51,135.5 L54.51,162.5 Z" id="Path" fill="#E01E5A"></path>
            <path d="M68.01,162.5 C68.01,147.59 80.1,135.5 95.01,135.5 C109.92,135.5 122.01,147.59 122.01,162.5 L122.01,230 C122.01,244.91 109.92,257 95.01,257 C80.1,257 68.01,244.91 68.01,230 L68.01,162.5 Z" id="Path" fill="#E01E5A"></path>
            <path d="M95.01,54.5 C80.1,54.5 68.01,42.41 68.01,27.5 C68.01,12.59 80.1,0.5 95.01,0.5 C109.92,0.5 122.01,12.59 122.01,27.5 L122.01,54.5 L95.01,54.5 Z" id="Path" fill="#36C5F0"></path>
            <path d="M95.01,68 C109.92,68 122.01,80.09 122.01,95 C122.01,109.91 109.92,122 95.01,122 L27.51,122 C12.6,122 0.51,109.91 0.51,95 C0.51,80.09 12.6,68 27.51,68 L95.01,68 Z" id="Path" fill="#36C5F0"></path>
            <path d="M203.01,95 C203.01,80.09 215.1,68 230.01,68 C244.92,68 257.01,80.09 257.01,95 C257.01,109.91 244.92,122 230.01,122 L203.01,122 L203.01,95 Z" id="Path" fill="#2EB67D"></path>
            <path d="M189.51,95 C189.51,109.91 177.42,122 162.51,122 C147.6,122 135.51,109.91 135.51,95 L135.51,27.5 C135.51,12.59 147.6,0.5 162.51,0.5 C177.42,0.5 189.51,12.59 189.51,27.5 L189.51,95 Z" id="Path" fill="#2EB67D"></path>
            <path d="M162.51,203 C177.42,203 189.51,215.09 189.51,230 C189.51,244.91 177.42,257 162.51,257 C147.6,257 135.51,244.91 135.51,230 L135.51,203 L162.51,203 Z" id="Path" fill="#ECB22E"></path>
            <path d="M162.51,189.5 C147.6,189.5 135.51,177.41 135.51,162.5 C135.51,147.59 147.6,135.5 162.51,135.5 L230.01,135.5 C244.92,135.5 257.01,147.59 257.01,162.5 C257.01,177.41 244.92,189.5 230.01,189.5 L162.51,189.5 Z" id="Path" fill="#ECB22E"></path>
        </g>
    </g>
</svg>