<?xml version="1.0" encoding="UTF-8" standalone="no"?>
<!-- Generator: Adobe Illustrator 21.0.2, SVG Export Plug-In . SVG Version: 6.00 Build 0)  -->

<svg
   xmlns:dc="http://purl.org/dc/elements/1.1/"
   xmlns:cc="http://creativecommons.org/ns#"
   xmlns:rdf="http://www.w3.org/1999/02/22-rdf-syntax-ns#"
   xmlns:svg="http://www.w3.org/2000/svg"
   xmlns="http://www.w3.org/2000/svg"
   xmlns:sodipodi="http://sodipodi.sourceforge.net/DTD/sodipodi-0.dtd"
   xmlns:inkscape="http://www.inkscape.org/namespaces/inkscape"
   version="1.1"
   id="Ebene_1"
   x="0px"
   y="0px"
   viewBox="0 0 139.79137 137.5"
   xml:space="preserve"
   sodipodi:docname="Angular Austria Logo 4C_logo_only.svg"
   width="139.79137"
   height="137.5"
   inkscape:version="0.92.3 (2405546, 2018-03-11)"><metadata
   id="metadata108"><rdf:RDF><cc:Work
       rdf:about=""><dc:format>image/svg+xml</dc:format><dc:type
         rdf:resource="http://purl.org/dc/dcmitype/StillImage" /><dc:title></dc:title></cc:Work></rdf:RDF></metadata><defs
   id="defs106" /><sodipodi:namedview
   pagecolor="#ffffff"
   bordercolor="#666666"
   borderopacity="1"
   objecttolerance="10"
   gridtolerance="10"
   guidetolerance="10"
   inkscape:pageopacity="0"
   inkscape:pageshadow="2"
   inkscape:window-width="1920"
   inkscape:window-height="1057"
   id="namedview104"
   showgrid="false"
   fit-margin-top="0"
   fit-margin-left="0"
   fit-margin-right="0"
   fit-margin-bottom="0"
   inkscape:zoom="1.5857199"
   inkscape:cx="-10.84147"
   inkscape:cy="10.189212"
   inkscape:window-x="-8"
   inkscape:window-y="-8"
   inkscape:window-maximized="1"
   inkscape:current-layer="Ebene_1" />
<style
   type="text/css"
   id="style2">
	.st0{fill:#DD0932;}
	.st1{fill:#C31532;}
	.st2{fill:#828383;}
	.st3{fill:#F0F0F0;}
	.st4{fill:#A8A6A7;}
	.st5{fill:#FFFFFF;}
	.st6{fill:#858585;}
</style>
<g
   id="g47"
   transform="translate(-227.76319,-297.2)">
	<g
   id="Layer_1_1_">
		<polygon
   class="st0"
   points="297.4,297.2 233.4,320 243.2,404.6 297.4,434.7 297.4,434.7 297.4,434.7 351.7,404.6 361.4,320 297.4,297.2 "
   id="polygon4"
   style="fill:#dd0932" />
		<polygon
   class="st1"
   points="297.4,312.4 297.4,382 297.4,382 297.4,434.7 297.4,434.7 351.7,404.6 361.4,320 297.4,297.2 297.4,312.5 "
   id="polygon6"
   style="fill:#c31532" />
	</g>
	<path
   class="st2"
   d="m 341.9,379.8 c 0.8,0.3 1.7,0.5 2.6,0.5 0.9,0 1.8,-0.2 2.6,-0.6 -0.5,0.1 -0.9,0.2 -1.4,0.2 -0.9,0 -1.9,-0.2 -2.7,-0.5 0.6,-1.7 2,-7.6 -4.5,-13.6 -0.1,-0.1 -0.2,-0.1 -0.3,-0.1 -0.1,0 -0.2,0 -0.3,0.1 -0.2,0.1 -0.3,0.4 -0.2,0.6 0,0 0.1,0.2 0.2,0.6 5.8,5.6 4.5,11.2 4,12.8 z m -88.1,0 c -0.6,-1.6 -1.8,-6.9 3.7,-12.5 0.1,-0.6 0.2,-1 0.2,-1 0.1,-0.2 0,-0.4 -0.2,-0.6 -0.1,0 -0.2,-0.1 -0.3,-0.1 -0.1,0 -0.2,0 -0.3,0.1 -6.5,6 -5.1,11.9 -4.5,13.6 -0.8,0.4 -1.8,0.6 -2.7,0.6 -0.3,0 -0.5,0 -0.8,-0.1 0.7,0.3 1.4,0.5 2.3,0.5 0.9,0 1.8,-0.2 2.6,-0.5 z m 105.1,16.3 c 1.9,-1 3.4,-2.5 4.5,-4.4 0.1,-0.2 0.3,-0.3 0.4,-0.3 0.2,0 0.4,0.1 0.4,0.3 0.2,-0.4 0.5,-0.9 0.7,-1.4 2.1,-5.1 1.1,-11.7 -3,-19.5 -0.1,-0.2 -0.3,-0.3 -0.4,-0.3 h -0.1 c -0.2,0.1 -0.4,0.3 -0.4,0.5 0,0 0,0.7 -0.1,1.6 3.5,7.1 4.2,13.1 2.3,17.8 -0.9,2.4 -2.4,4.3 -4.3,5.7 z M 357,378.5 c 0.3,-0.2 0.6,-0.4 0.8,-0.6 1.8,-1.9 1.6,-6.1 1.6,-6.1 0,-0.2 0.1,-0.4 0.4,-0.5 h 0.1 c 0.1,0 0.2,0 0.3,0.1 0.2,-3.9 -0.3,-9.6 -2.6,-17.9 -0.1,-0.2 -0.3,-0.4 -0.5,-0.4 H 357 c -0.2,0 -0.4,0.2 -0.4,0.5 0,0 0,1 -0.1,2.4 3.7,14.2 1.8,20.3 0.5,22.5 z m -20.9,-5 c -0.5,0.2 -1,0.3 -1.6,0.3 -4.6,0 -12.9,-4.7 -24.7,-14 -0.6,-0.5 -1.4,-0.8 -2.2,-0.8 -1.4,0.1 -2.8,0.6 -4.1,1.4 -1.6,0.9 -3.4,1.5 -5.2,1.6 h -0.5 c -0.1,0 -0.1,0 -0.2,0 -0.1,0 -0.1,0 -0.2,0 h -0.5 c -1.8,-0.1 -3.6,-0.7 -5.2,-1.6 -1.3,-0.7 -2.7,-1.2 -4.1,-1.4 -0.8,0 -1.6,0.3 -2.2,0.8 -11.8,9.3 -20.1,14 -24.7,14 -0.4,0 -0.7,0 -1.1,-0.1 0.6,0.5 1.4,0.8 2.3,0.7 4.4,0 12.5,-4.6 24,-13.6 0.6,-0.5 1.3,-0.7 2.1,-0.7 1.4,0.1 2.8,0.6 4,1.3 1.5,0.9 3.3,1.5 5.1,1.6 h 0.5 c 0.1,0 0.1,0 0.2,0 0.1,0 0.1,0 0.2,0 h 0.5 c 1.8,-0.1 3.5,-0.7 5.1,-1.6 1.2,-0.7 2.6,-1.2 4,-1.3 0.8,0 1.5,0.3 2.1,0.7 11.5,9 19.6,13.6 24,13.6 0.9,0.1 1.7,-0.3 2.4,-0.9 z m -100.7,-1.9 c 0.1,-0.2 0.3,-0.3 0.4,-0.3 h 0.1 c 0.2,0.1 0.4,0.3 0.4,0.5 0,0 -0.2,4.2 1.6,6.1 0.2,0.2 0.5,0.5 0.8,0.6 -1.3,-2.2 -3.1,-8.1 0.4,-21.6 -0.2,-2 -0.2,-3.3 -0.2,-3.3 0,-0.2 -0.2,-0.5 -0.4,-0.5 h -0.1 c -0.2,0 -0.4,0.1 -0.5,0.4 -2.4,8.6 -2.9,14.4 -2.6,18.3 0,-0.1 0,-0.1 0.1,-0.2 z m 130.5,20.1 c -0.1,-0.2 -0.2,-0.3 -0.4,-0.4 -0.2,0 -0.4,0.1 -0.4,0.3 -0.2,0.3 -0.4,0.6 -0.6,0.9 0.9,3.2 3.9,15.6 -2.7,24.5 -4.4,5.9 -11.8,8.8 -19,9 -0.7,0 -1.6,0 -2.4,0 -4.6,-0.2 -10.7,-0.9 -13.9,-4.2 3.1,3.9 9.9,5.1 14.9,5.2 0.8,0 1.6,0 2.4,0 7.4,-0.1 15.1,-3 19.6,-9.1 7.4,-10.3 2.7,-25.6 2.5,-26.2 z m -132,25.6 c -6.3,-8.6 -3.8,-20.8 -2.8,-24.4 -0.3,-0.4 -0.6,-0.8 -0.8,-1.3 -0.1,-0.2 -0.3,-0.3 -0.5,-0.3 -0.2,0 -0.4,0.2 -0.4,0.3 -0.2,0.6 -4.9,16 2.6,26.2 6,8.2 19.4,10.8 28.7,7.8 1.9,-0.6 5.5,-1.9 7.7,-3.7 -2.1,1.4 -5,2.4 -6.5,2.9 -9.1,3 -22.1,0.5 -28,-7.5 z m -2.6,-25.2 c 0,-0.2 0.1,-0.3 0.1,-0.3 0.1,-0.2 0.2,-0.3 0.4,-0.3 0.2,0 0.4,0.1 0.4,0.3 1,1.9 2.6,3.4 4.5,4.3 -1.9,-1.4 -3.4,-3.3 -4.3,-5.5 -1.9,-4.6 -1.2,-10.4 2.1,-17.3 -0.1,-1.2 -0.1,-2.2 -0.1,-2.2 0,-0.2 -0.1,-0.4 -0.4,-0.5 h -0.1 c -0.2,0 -0.4,0.1 -0.4,0.3 -4.1,7.8 -5.1,14.4 -3,19.5 0.2,0.6 0.5,1.2 0.8,1.7 z"
   id="path9"
   inkscape:connector-curvature="0"
   style="fill:#828383" />
	<path
   class="st3"
   d="m 340,426 c -5.6,-0.2 -13.5,-1.6 -15.6,-6.9 -0.1,-0.3 0,-0.7 0.2,-0.9 7.7,-7 11.6,-13.8 11.5,-20 0,-3.4 -1.4,-6.5 -3.7,-8.9 -1.4,0.2 -2.7,0.3 -4.1,0.3 -4.8,0 -11.1,-1.2 -14.4,-7.2 -2.6,-4.7 -10.5,-5.2 -14.3,-5.4 -0.7,0 -1.3,-0.1 -1.9,-0.2 h -0.2 -0.1 -0.2 c -0.6,0.1 -1.3,0.1 -1.9,0.2 -3.8,0.2 -11.8,0.7 -14.3,5.4 -3.3,6 -9.6,7.2 -14.4,7.2 -1.4,0 -2.7,-0.1 -4.1,-0.3 -2.3,2.4 -3.7,5.7 -3.7,9 0,6.2 3.9,12.9 11.6,19.9 0.3,0.2 0.4,0.6 0.2,0.9 -0.9,2.8 -6.6,4.9 -9.1,5.7 -9,2.9 -22,0.3 -27.9,-7.6 -7.3,-10 -2.7,-24.9 -2.5,-25.5 0.1,-0.2 0.2,-0.3 0.4,-0.3 0.2,0 0.4,0.1 0.4,0.3 1,1.9 2.6,3.4 4.5,4.3 -1.9,-1.4 -3.4,-3.3 -4.3,-5.5 -2.1,-5 -1.1,-11.4 2.9,-19 0.1,-0.2 0.3,-0.3 0.4,-0.3 h 0.1 c 0.2,0.1 0.4,0.3 0.4,0.5 0,0 -0.2,4.2 1.6,6.1 0.2,0.2 0.5,0.5 0.8,0.6 -1.3,-2.3 -3.3,-8.8 1,-23.9 0.1,-0.2 0.3,-0.3 0.5,-0.4 h 0.1 c 0.2,0 0.4,0.2 0.4,0.5 0,0.3 0.7,25.5 10.6,25.5 0.9,0 1.8,-0.2 2.7,-0.5 -0.6,-1.7 -1.9,-7.4 4.4,-13.2 0.1,-0.1 0.2,-0.1 0.3,-0.1 0.1,0 0.2,0 0.3,0.1 0.2,0.1 0.3,0.3 0.2,0.6 0,0 -1.2,4.1 0.3,6.1 0.7,0.8 1.7,1.3 2.7,1.2 4.4,0 12.5,-4.6 24,-13.6 0.6,-0.5 1.3,-0.7 2.1,-0.7 1.4,0.1 2.8,0.6 4,1.3 1.5,0.9 3.3,1.5 5.1,1.6 h 0.5 c 0.1,0 0.1,0 0.2,0 0.1,0 0.1,0 0.2,0 h 0.5 c 1.8,-0.1 3.5,-0.7 5.1,-1.6 1.2,-0.7 2.6,-1.2 4,-1.3 0.8,0 1.5,0.3 2.1,0.7 11.5,9 19.6,13.6 24,13.6 1,0.1 2.1,-0.3 2.7,-1.2 1.5,-2 0.3,-6.1 0.3,-6.1 -0.1,-0.2 0,-0.4 0.2,-0.6 0.1,0 0.2,-0.1 0.3,-0.1 0.1,0 0.2,0 0.3,0.1 6.3,5.8 5,11.5 4.4,13.2 0.8,0.3 1.7,0.5 2.6,0.5 9.9,0 10.6,-25.3 10.6,-25.5 0,-0.2 0.2,-0.4 0.4,-0.5 h 0.1 c 0.2,0 0.4,0.1 0.5,0.4 4.3,15.1 2.3,21.5 1,23.9 0.3,-0.2 0.6,-0.4 0.8,-0.6 1.8,-1.9 1.6,-6.1 1.6,-6.1 0,-0.2 0.1,-0.4 0.4,-0.5 h 0.1 c 0.2,0 0.3,0.1 0.4,0.3 4,7.6 5,14 2.9,19 -0.9,2.2 -2.4,4.1 -4.3,5.5 1.9,-1 3.4,-2.5 4.5,-4.4 0.1,-0.2 0.3,-0.3 0.4,-0.3 0.2,0 0.4,0.1 0.4,0.3 0.2,0.6 4.8,15.5 -2.5,25.5 -4.4,5.9 -11.8,8.7 -19,8.9 -1.1,0 -1.9,0 -2.7,0 z"
   id="path11"
   inkscape:connector-curvature="0"
   style="fill:#f0f0f0" />
	<path
   class="st4"
   d="m 365.5,390.6 c 0,-0.2 -0.2,-0.3 -0.4,-0.3 -0.1,0 -0.3,0.1 -0.4,0.3 -0.2,0.3 -0.4,0.6 -0.6,0.9 v 0.1 c 0.2,0.6 4.8,15.5 -2.5,25.5 -1,1.4 -2.2,2.6 -3.5,3.6 1.8,-1.2 3.5,-2.8 4.8,-4.6 7.4,-10 2.8,-24.9 2.6,-25.5 z m -54.6,-30.9 c -0.6,-0.4 -1.3,-0.7 -2.1,-0.7 -1.4,0.1 -2.8,0.6 -4,1.3 -1.6,0.9 -3.3,1.5 -5.1,1.6 h -0.5 c -0.1,0 -0.1,0 -0.2,0 -0.1,0 -0.1,0 -0.2,0 h -0.5 c -1.8,-0.1 -3.6,-0.7 -5.1,-1.6 -1.2,-0.7 -2.6,-1.2 -4,-1.3 -0.8,0 -1.5,0.2 -2.1,0.7 -0.3,0.2 -0.6,0.5 -0.9,0.7 0.5,-0.3 1,-0.4 1.6,-0.4 1.4,0.1 2.8,0.6 4,1.3 1.5,0.9 3.3,1.5 5.1,1.6 h 0.5 c 0.1,0 0.1,0 0.2,0 0.1,0 0.1,0 0.2,0 h 0.5 c 1.8,-0.1 3.5,-0.7 5.1,-1.6 1.2,-0.7 2.6,-1.2 4,-1.3 0.8,0 1.5,0.3 2.1,0.7 11.5,9 19.6,13.6 24,13.6 1,0.1 2.1,-0.3 2.7,-1.2 -0.4,0.2 -0.9,0.2 -1.3,0.2 -4.4,0 -12.5,-4.6 -24,-13.6 z m 48.5,12 c 0,-0.2 0.1,-0.4 0.4,-0.5 h 0.1 c 0.3,-3.8 -0.2,-9.5 -2.5,-17.7 -0.1,-0.3 -0.3,-0.4 -0.5,-0.4 h -0.2 c -0.2,0.1 -0.4,0.3 -0.4,0.5 0,0 0,0.7 -0.1,1.8 3.9,14.4 2,20.6 0.7,23 0.3,-0.2 0.6,-0.4 0.8,-0.6 1.9,-1.9 1.7,-6.1 1.7,-6.1 z m -0.5,24.3 c 0.8,-0.4 1.4,-0.9 2.1,-1.4 -0.2,0.1 -0.5,0.3 -0.7,0.4 0.9,-0.7 1.8,-1.5 2.5,-2.4 0.2,-0.3 0.4,-0.6 0.6,-1 0,0 0,0 0.1,-0.1 0.4,-0.6 0.8,-1.3 1.1,-2 2.1,-5 1.1,-11.4 -2.9,-19 -0.1,-0.2 -0.2,-0.3 -0.4,-0.3 h -0.1 c -0.3,0.1 -0.4,0.3 -0.4,0.5 0,0 0,0.7 0,1.6 3.7,7.3 4.5,13.4 2.5,18.2 -1,2.2 -2.5,4.1 -4.4,5.5 z m -99.8,-22.9 c 0.7,0.8 1.7,1.3 2.7,1.2 3.9,0 10.9,-3.7 20.6,-11 -9,6.6 -15.5,10 -19.2,10 -1,0.1 -2,-0.4 -2.7,-1.2 -1.5,-2 -0.3,-6.1 -0.3,-6.1 0.1,-0.3 0,-0.5 -0.2,-0.6 -0.1,-0.1 -0.2,-0.1 -0.3,-0.1 -0.1,0 -0.2,0 -0.3,0.1 -0.3,0.3 -0.6,0.6 -0.9,0.9 0.1,0 0.1,0 0.2,0.1 0.2,0.1 0.3,0.3 0.2,0.6 -0.1,0 -1.3,4.1 0.2,6.1 z m 84,5.5 c 0.6,-1.7 1.9,-7.4 -4.4,-13.2 -0.1,-0.1 -0.2,-0.1 -0.3,-0.1 -0.1,0 -0.2,0.1 -0.3,0.1 -0.2,0.2 -0.3,0.4 -0.2,0.6 0,0 0.1,0.5 0.3,1.2 5.4,5.5 4.2,10.8 3.6,12.4 0.8,0.3 1.7,0.5 2.6,0.5 1.6,0 2.9,-0.6 4.1,-1.7 -0.8,0.5 -1.7,0.7 -2.7,0.7 -1,0 -1.9,-0.2 -2.7,-0.5 z M 232.3,391 c -0.1,0.2 -0.2,0.6 -0.3,1 1,1.8 2.5,3.2 4.3,4 -1.7,-1.3 -3,-3 -4,-5 z m 48.7,-8.6 c -0.8,1.5 -1.8,2.7 -2.9,3.6 1.6,-1.1 3.1,-2.5 4.2,-4.6 0.4,-0.7 0.9,-1.3 1.5,-1.8 -1.2,0.7 -2.2,1.6 -2.8,2.8 z m -9.3,34.8 c -7.7,-7 -11.6,-13.7 -11.6,-19.9 0,-2.8 1,-5.7 2.8,-8 -0.2,0 -0.3,0 -0.4,0 -2.3,2.4 -3.7,5.7 -3.7,9 0,6.2 3.9,12.9 11.6,19.9 0.3,0.2 0.4,0.6 0.2,0.9 -0.2,0.7 -0.7,1.3 -1.4,1.9 1.3,-0.8 2.4,-1.8 2.7,-2.9 0.2,-0.3 0.1,-0.7 -0.2,-0.9 z m -19.5,-38.1 c -9.9,0 -10.6,-25.2 -10.6,-25.5 0,-0.3 -0.2,-0.5 -0.4,-0.5 h -0.1 c -0.2,0.1 -0.4,0.2 -0.5,0.4 -0.1,0.4 -0.2,0.8 -0.3,1.3 0.1,2.1 1.1,25.3 10.6,25.3 0.9,0 1.8,-0.2 2.7,-0.5 -0.1,-0.2 -0.1,-0.4 -0.2,-0.6 -0.4,0.1 -0.8,0.1 -1.2,0.1 z m -15.9,-8.6 c -0.2,0.3 -0.3,0.7 -0.5,1 0,0.1 0.1,0.1 0.1,0.2 0,0 -0.2,4.2 1.6,6.1 0.2,0.2 0.5,0.5 0.8,0.6 -0.7,-1.2 -1.6,-3.8 -1.6,-8.2 -0.1,0.1 -0.3,0.1 -0.4,0.3 z"
   id="path13"
   inkscape:connector-curvature="0"
   style="fill:#a8a6a7" />
	<path
   class="st5"
   d="m 233.5,380 c -0.3,2.4 -1.2,4.9 -0.8,7.3 0.3,1.7 1,3.1 2.1,4.3 0.7,0.8 5.1,5.1 4.5,1.3 -0.2,-1.2 -1.2,-2 -2.2,-2.6 -3.5,-2.4 -4.2,-6.1 -3.6,-10.3 z"
   id="path15"
   inkscape:connector-curvature="0"
   style="fill:#ffffff" />
	<path
   class="st5"
   d="m 255.6,373.5 c 0,0 1.2,5.9 9.3,2.9 8.1,-3 15.8,-9.6 15.8,-9.6 0,0 -9.3,11.3 -20,12.1 0.1,0 -6.4,0.2 -5.1,-5.4 z"
   id="path17"
   inkscape:connector-curvature="0"
   style="fill:#ffffff" />
	<path
   class="st5"
   d="m 239,361.6 c 0,0 -1.8,8.9 0,13.7 1.8,4.8 0.9,-2.4 0.9,-2.4 0,0 -0.9,-8.3 -0.9,-11.3 z"
   id="path19"
   inkscape:connector-curvature="0"
   style="fill:#ffffff" />
	<path
   class="st4"
   d="m 239.2,422.7 c 0,0 13,5 23.2,-5 0,0 0.6,0.4 0,1.3 0,0 -1.2,2 -5.9,4 -4.7,2.1 -8.7,1.9 -9.2,2 0,0 -5.6,0.2 -8.1,-2.3 z"
   id="path21"
   inkscape:connector-curvature="0"
   style="fill:#a8a6a7" />
	<path
   class="st4"
   d="m 229.9,394.5 c 0,0 -0.1,13.9 12.8,20 0,0 -0.1,0.7 -1.2,0.4 0,0 -2.2,-0.4 -5.8,-4.1 -3.6,-3.7 -4.9,-7.5 -5.1,-8 -0.1,0.2 -2.2,-5 -0.7,-8.3 z"
   id="path23"
   inkscape:connector-curvature="0"
   style="fill:#a8a6a7" />
	<path
   class="st4"
   d="m 234.2,373 c 0,0 -3.5,11.1 5.2,19.1 0,0 -0.3,0.5 -1.1,0.1 0,0 -1.7,-0.9 -3.6,-4.7 -1.9,-3.8 -2,-7.2 -2.1,-7.6 0,-0.1 -0.4,-4.7 1.6,-6.9 z"
   id="path25"
   inkscape:connector-curvature="0"
   style="fill:#a8a6a7" />
	<path
   class="st5"
   d="m 232.6,399.6 c 0.1,0.7 0.5,1.7 0.6,2 0.9,2 2.3,3.8 3.6,5.5 3.2,4.2 7.7,7.5 13.1,7.9 -4.2,-0.4 -7.9,-3.6 -10.3,-6.9 -1.4,-1.9 -2.5,-4.2 -3.8,-6.3 -0.5,-0.8 -1.4,-2.6 -2.3,-2.9 -0.8,-0.2 -1,0.1 -0.9,0.7 z"
   id="path27"
   inkscape:connector-curvature="0"
   style="fill:#ffffff" />
	<path
   class="st5"
   d="m 334.6,378.9 c -10.7,-0.8 -20,-12.1 -20,-12.1 0,0 7.7,6.6 15.8,9.6 8.1,3 9.3,-2.9 9.3,-2.9 1.3,5.6 -5.2,5.4 -5.1,5.4 z"
   id="path29"
   inkscape:connector-curvature="0"
   style="fill:#ffffff" />
	<path
   class="st5"
   d="m 355.4,372.9 c 0,0 -0.9,7.2 0.9,2.4 1.8,-4.8 0,-13.7 0,-13.7 0,3 -0.9,11.3 -0.9,11.3 z"
   id="path31"
   inkscape:connector-curvature="0"
   style="fill:#ffffff" />
	<path
   class="st4"
   d="m 348,425 c -0.5,-0.1 -4.5,0.1 -9.2,-2 -4.7,-2 -5.9,-4 -5.9,-4 -0.6,-0.9 0,-1.3 0,-1.3 10.2,10 23.2,5 23.2,5 -2.5,2.5 -8.1,2.3 -8.1,2.3 z"
   id="path33"
   inkscape:connector-curvature="0"
   style="fill:#a8a6a7" />
	<path
   class="st4"
   d="m 364.7,402.8 c 0,0.1 -0.1,0.2 -0.1,0.3 -1,2.5 -2.4,4.8 -4.2,6.9 -0.2,0.3 -0.5,0.5 -0.8,0.8 -3.6,3.7 -5.8,4.1 -5.8,4.1 -1.1,0.3 -1.2,-0.4 -1.2,-0.4 12.9,-6.1 12.8,-20 12.8,-20 1.2,2.7 0.4,5.7 -0.7,8.3 z"
   id="path35"
   inkscape:connector-curvature="0"
   style="fill:#a8a6a7" />
	<path
   class="st4"
   d="m 362.7,379.9 c -0.1,0.4 -0.2,3.8 -2.1,7.6 -1.9,3.8 -3.6,4.7 -3.6,4.7 -0.8,0.4 -1.1,-0.1 -1.1,-0.1 8.7,-8 5.2,-19.1 5.2,-19.1 2,2.2 1.6,6.8 1.6,6.9 z"
   id="path37"
   inkscape:connector-curvature="0"
   style="fill:#a8a6a7" />
	<path
   class="st5"
   d="m 361.8,398.9 c -0.9,0.3 -1.8,2.1 -2.3,2.9 -1.3,2.1 -2.4,4.4 -3.8,6.3 -2.4,3.3 -6.1,6.5 -10.3,6.9 5.4,-0.4 9.9,-3.7 13.1,-7.9 1.3,-1.7 2.7,-3.5 3.6,-5.5 0.1,-0.3 0.5,-1.3 0.6,-2 0.1,-0.6 -0.1,-0.9 -0.9,-0.7 z"
   id="path39"
   inkscape:connector-curvature="0"
   style="fill:#ffffff" />
	<path
   class="st6"
   d="m 327.8,389 c -5.7,-0.5 -8.8,-3.6 -13.7,-8.4 -5.1,-4.9 -12.4,-6.2 -19.4,-5.5 -8.9,0.9 -12.3,4.5 -17.4,8.8 -3.1,2.7 -6.5,5 -10.8,5.3 -4.3,0.2 -8.6,-2 -11,-5.6 0.3,2.3 1.8,4.2 3.7,5.5 1.9,1.3 4.2,1.7 6.5,1.8 3.4,0.1 6.8,-0.6 9.7,-2.4 3.3,-2 5.6,-5.2 8.8,-7.4 4.6,-3.1 10.4,-3.6 15.8,-3.3 4.1,0.2 8.2,1.4 11.4,3.9 2.2,1.8 3.9,4.1 6.1,5.9 3.9,3.2 9.4,4.3 14.2,2.9 3.4,-0.9 6.6,-3.2 7.5,-6.6 -0.9,1.9 -2.8,3.1 -4.7,3.9 -1.9,1.1 -4.3,1.4 -6.7,1.2 z"
   id="path41"
   inkscape:connector-curvature="0"
   style="fill:#858585" />
	<path
   class="st2"
   d="m 262.3,390.4 c 0,0 -8.7,10.3 9.5,26.8 0,0 1.5,0.9 -2.5,3.8 0,0 2.5,-1.7 1.2,-2.8 -1.3,-1.1 -9,-8.1 -11.3,-16.2 0,0 -1.9,-7.2 2.6,-11.8 z"
   id="path43"
   inkscape:connector-curvature="0"
   style="fill:#828383" />
	<path
   class="st2"
   d="m 332.5,390.4 c 0,0 8.7,10.3 -9.5,26.8 0,0 -1.5,0.9 2.5,3.8 0,0 -1.8,-2 -0.5,-3 1.3,-1.1 9.2,-8 10.9,-16.4 0,0 1.6,-6.9 -2.8,-11.4 z"
   id="path45"
   inkscape:connector-curvature="0"
   style="fill:#828383" />
</g>


</svg>