<svg aria-hidden="true" style="position: absolute; width: 0; height: 0; overflow: hidden;" version="1.1" xmlns="http://www.w3.org/2000/svg" xmlns:xlink="http://www.w3.org/1999/xlink">
<defs>
<symbol id="icon-menu" viewBox="0 0 15 20">
<title>icon-menu</title>
<path d="M16.4 9h-12.8c-0.552 0-0.6 0.447-0.6 1s0.048 1 0.6 1h12.8c0.552 0 0.6-0.447 0.6-1s-0.048-1-0.6-1zM16.4 13h-12.8c-0.552 0-0.6 0.447-0.6 1s0.048 1 0.6 1h12.8c0.552 0 0.6-0.447 0.6-1s-0.048-1-0.6-1zM3.6 7h12.8c0.552 0 0.6-0.447 0.6-1s-0.048-1-0.6-1h-12.8c-0.552 0-0.6 0.447-0.6 1s0.048 1 0.6 1z"></path>
</symbol>
<symbol id="icon-facebook" viewBox="0 0 25 25">
<title>icon-facebook</title>
<path d="M17.7777778,0 L2.22222222,0 C1,0 0,1 0,2.22222222 L0,17.7777778 C0,19.0011111 1,20 2.22222222,20 L10,20 L10,12.2222222 L7.77777778,12.2222222 L7.77777778,9.47222222 L10,9.47222222 L10,7.19444444 C10,4.79 11.3466667,3.10111111 14.1844444,3.10111111 L16.1877778,3.10333333 L16.1877778,5.99777778 L14.8577778,5.99777778 C13.7533333,5.99777778 13.3333333,6.82666667 13.3333333,7.59555556 L13.3333333,9.47333333 L16.1866667,9.47333333 L15.5555556,12.2222222 L13.3333333,12.2222222 L13.3333333,20 L17.7777778,20 C19,20 20,19.0011111 20,17.7777778 L20,2.22222222 C20,1 19,0 17.7777778,0 Z" id="Path"></path>
</symbol>
<symbol id="icon-twitter" viewBox="0 0 25 25">
<title>icon-twitter</title>
<path d="M20.645,5.3075 C20.655,5.51 20.65875,5.715 20.65875,5.9175 C20.65875,12.155 15.9125,19.345 7.23375,19.345 C4.5675,19.345 2.08875,18.56375 0,17.22375 C0.37,17.2675 0.745,17.29 1.125,17.29 C3.3375,17.29 5.37125,16.535 6.985,15.27125 C4.92125,15.2325 3.1775,13.87 2.5775,11.995 C2.865,12.04875 3.16125,12.0775 3.465,12.0775 C3.89625,12.0775 4.31375,12.02125 4.70875,11.91375 C2.55,11.47875 0.92375,9.5725 0.92375,7.285 C0.92375,7.265 0.92375,7.24625 0.92375,7.22625 C1.56,7.58 2.28875,7.7925 3.06125,7.8175 C1.795,6.97 0.96125,5.5275 0.96125,3.88875 C0.96125,3.025 1.19375,2.21375 1.60125,1.51625 C3.9275,4.3725 7.40625,6.25 11.3275,6.4475 C11.2475,6.10125 11.20625,5.7425 11.20625,5.37125 C11.20625,2.76625 13.3175,0.655 15.92375,0.655 C17.28125,0.655 18.5075,1.22625 19.36875,2.14375 C20.4425,1.93125 21.4525,1.53875 22.365,0.99875 C22.0125,2.1 21.26375,3.025 20.29,3.60875 C21.245,3.49375 22.1525,3.2425 23,2.86625 C22.3675,3.81375 21.5675,4.64375 20.645,5.3075 Z" id="Path"></path>
</symbol>
<symbol id="icon-linkedin" viewBox="0 0 25 25">
<title>icon-linkedin</title>
<path d="M5,3c0,1.1-0.7,2-2,2C1.8,5,1,4.1,1,3.1C1,2,1.8,1,3,1S5,1.9,5,3z M1,19h4V6H1V19z M14.6,6.2c-2.1,0-3.3,1.2-3.8,2h-0.1 l-0.2-1.7H6.9C6.9,7.6,7,8.9,7,10.4V19h4v-7.1c0-0.4,0-0.7,0.1-1c0.3-0.7,0.8-1.6,1.9-1.6c1.4,0,2,1.2,2,2.8V19h4v-7.4 C19,7.9,17.1,6.2,14.6,6.2z"/>
</symbol>
<symbol id="icon-slack" viewBox="0 0 25 25">
<title>icon-slack</title>
<path d="M5.161,13.516 C5.161,14.3577769 4.65387226,15.1166482 3.87613308,15.4386888 C3.0983939,15.7607294 2.20324029,15.5825045 1.60815719,14.9871353 C1.0130741,14.3917661 0.835279488,13.4965269 1.15769385,12.7189426 C1.48010822,11.9413583 2.23922319,11.4345955 3.081,11.4349998 L5.161,11.4349998 L5.161,13.516 Z" id="Path"></path>
<path d="M6.209,13.516 C6.23380297,12.3847424 7.15797055,11.4806152 8.2895,11.4806152 C9.42102945,11.4806152 10.345197,12.3847424 10.37,13.516 L10.37,18.725 C10.345197,19.8562576 9.42102945,20.7603848 8.2895,20.7603848 C7.15797055,20.7603848 6.23380297,19.8562576 6.209,18.725 L6.209,13.516 Z" id="Path-2"></path>
<path d="M8.29,5.16100024 C7.4481322,5.16140445 6.688954,4.65453337 6.36659828,3.87682627 C6.04424257,3.09911916 6.22222053,2.20380153 6.81751103,1.60851103 C7.41280153,1.01322053 8.30811916,0.835242565 9.08582627,1.15759828 C9.86353337,1.479954 10.3704045,2.2391322 10.3700002,3.081 L10.3700002,5.16100024 L8.29,5.16100024 Z" id="Path-3"></path>
<path d="M8.29,6.209 C9.42125758,6.23380297 10.3253848,7.15797055 10.3253848,8.2895 C10.3253848,9.42102945 9.42125758,10.345197 8.29,10.37 L3.081,10.37 C1.94974242,10.345197 1.04561524,9.42102945 1.04561524,8.2895 C1.04561524,7.15797055 1.94974242,6.23380297 3.081,6.209 L8.29,6.209 Z" id="Path-4"></path>
<path d="M16.6449998,8.29 C16.6445955,7.44822319 17.1513583,6.68910822 17.9289426,6.36669385 C18.7065269,6.04427949 19.6017661,6.2220741 20.1971353,6.81715719 C20.7925045,7.41224029 20.9707294,8.3073939 20.6486888,9.08513308 C20.3266482,9.86287226 19.5677769,10.37 18.726,10.37 L16.6449998,10.37 L16.6449998,8.29 Z" id="Path-5"></path>
<path d="M15.596,8.29 C15.571197,9.42125758 14.6470295,10.3253848 13.5155,10.3253848 C12.3839705,10.3253848 11.459803,9.42125758 11.435,8.29 L11.435,3.081 C11.459803,1.94974242 12.3839705,1.04561524 13.5155,1.04561524 C14.6470295,1.04561524 15.571197,1.94974242 15.596,3.081 L15.596,8.29 Z" id="Path-6"></path>
<path d="M13.516,16.645 C14.6653046,16.645 15.597,17.5766954 15.597,18.726 C15.597,19.8753046 14.6653046,20.807 13.516,20.807 C12.3666954,20.807 11.435,19.8753046 11.435,18.726 L11.435,16.645 L13.516,16.645 Z" id="Path-7"></path>
<path d="M13.516,15.596 C12.3847424,15.571197 11.4806152,14.6470295 11.4806152,13.5155 C11.4806152,12.3839705 12.3847424,11.459803 13.516,11.435 L18.725,11.435 C19.8562576,11.459803 20.7603848,12.3839705 20.7603848,13.5155 C20.7603848,14.6470295 19.8562576,15.571197 18.725,15.596 L13.516,15.596 Z" id="Path-8"></path>
</symbol>
<symbol id="icon-slack_full" viewBox="0 0 1014 257" preserveAspectRatio="xMidYMid meet">
<title>icon-slack_full</title>
<path d="M324.51,202.44 L337.09,173.1 C350.86,183.28 368.83,188.67 386.79,188.67 C399.96,188.67 408.35,183.58 408.35,175.8 C408.05,154.24 329.01,171.01 328.41,116.82 C328.11,89.28 352.66,68.02 387.4,68.02 C408.06,68.02 428.72,73.11 443.39,84.79 L431.64,114.76 C418.14,106.1 401.47,100.06 385.61,100.06 C374.83,100.06 367.64,105.15 367.64,111.74 C367.94,133 447.58,121.32 448.48,173.12 C448.48,201.26 424.52,221.02 390.39,221.02 C365.23,221 342.18,215.01 324.51,202.44" id="Path" fill="#FFFFFF"></path>
<path d="M810.13,162.47 C803.86,173.55 791.97,181.03 778.33,181.03 C758.16,181.03 741.8,164.68 741.8,144.5 C741.8,124.32 758.15,107.97 778.33,107.97 C791.97,107.97 803.86,115.45 810.13,126.53 L845.09,107.16 C832,83.8 807.01,68 778.33,68 C736.08,68 701.83,102.25 701.83,144.5 C701.83,186.75 736.08,221 778.33,221 C807.02,221 832,205.2 845.09,181.84 L810.13,162.47 Z" id="Path" fill="#FFFFFF"></path>
<rect id="Rectangle" fill="#FFFFFF" x="466.09" y="4.32" width="43.72" height="213.68"></rect>
<polygon id="Path" fill="#FFFFFF" points="862.1 4.32 862.1 218.01 905.82 218.01 905.82 153.98 957.62 218.01 1013.49 218.01 947.62 141.95 1008.7 70.99 955.22 70.99 905.82 129.98 905.82 4.32"></polygon>
<path d="M639.42,162.76 C633.13,173.24 619.96,181.02 605.29,181.02 C585.12,181.02 568.76,164.67 568.76,144.49 C568.76,124.31 585.12,107.96 605.29,107.96 C619.96,107.96 633.13,116.04 639.42,126.82 L639.42,162.76 Z M639.42,70.99 L639.42,88.36 C632.23,76.38 614.57,68 596,68 C557.67,68 527.43,101.83 527.43,144.35 C527.43,186.87 557.67,221 596,221 C614.56,221 632.23,212.62 639.41,200.64 L639.41,218 L683.12,218 L683.12,70.99 L639.42,70.99 Z" id="Shape" fill="#FFFFFF"></path>
<path d="M54.51,162.5 C54.51,177.41 42.42,189.5 27.51,189.5 C12.6,189.5 0.51,177.41 0.51,162.5 C0.51,147.59 12.6,135.5 27.51,135.5 L54.51,135.5 L54.51,162.5 Z" id="Path" fill="#E01E5A"></path>
<path d="M68.01,162.5 C68.01,147.59 80.1,135.5 95.01,135.5 C109.92,135.5 122.01,147.59 122.01,162.5 L122.01,230 C122.01,244.91 109.92,257 95.01,257 C80.1,257 68.01,244.91 68.01,230 L68.01,162.5 Z" id="Path" fill="#E01E5A"></path>
<path d="M95.01,54.5 C80.1,54.5 68.01,42.41 68.01,27.5 C68.01,12.59 80.1,0.5 95.01,0.5 C109.92,0.5 122.01,12.59 122.01,27.5 L122.01,54.5 L95.01,54.5 Z" id="Path" fill="#36C5F0"></path>
<path d="M95.01,68 C109.92,68 122.01,80.09 122.01,95 C122.01,109.91 109.92,122 95.01,122 L27.51,122 C12.6,122 0.51,109.91 0.51,95 C0.51,80.09 12.6,68 27.51,68 L95.01,68 Z" id="Path" fill="#36C5F0"></path>
<path d="M203.01,95 C203.01,80.09 215.1,68 230.01,68 C244.92,68 257.01,80.09 257.01,95 C257.01,109.91 244.92,122 230.01,122 L203.01,122 L203.01,95 Z" id="Path" fill="#2EB67D"></path>
<path d="M189.51,95 C189.51,109.91 177.42,122 162.51,122 C147.6,122 135.51,109.91 135.51,95 L135.51,27.5 C135.51,12.59 147.6,0.5 162.51,0.5 C177.42,0.5 189.51,12.59 189.51,27.5 L189.51,95 Z" id="Path" fill="#2EB67D"></path>
<path d="M162.51,203 C177.42,203 189.51,215.09 189.51,230 C189.51,244.91 177.42,257 162.51,257 C147.6,257 135.51,244.91 135.51,230 L135.51,203 L162.51,203 Z" id="Path" fill="#ECB22E"></path>
<path d="M162.51,189.5 C147.6,189.5 135.51,177.41 135.51,162.5 C135.51,147.59 147.6,135.5 162.51,135.5 L230.01,135.5 C244.92,135.5 257.01,147.59 257.01,162.5 C257.01,177.41 244.92,189.5 230.01,189.5 L162.51,189.5 Z" id="Path" fill="#ECB22E"></path>
</symbol>
<symbol id="location-pin" viewBox="0 0 54.757 54.757" preserveAspectRatio="xMidYMid meet">
<title>location-pin</title>
  <path d="M40.94,5.617C37.318,1.995,32.502,0,27.38,0c-5.123,0-9.938,1.995-13.56,5.617c-6.703,6.702-7.536,19.312-1.804,26.952
	L27.38,54.757L42.721,32.6C48.476,24.929,47.643,12.319,40.94,5.617z M27.557,26c-3.859,0-7-3.141-7-7s3.141-7,7-7s7,3.141,7,7
	S31.416,26,27.557,26z"/>
</symbol>

</defs>
</svg>
