<?xml version="1.0" standalone="no"?>
<!DOCTYPE svg PUBLIC "-//W3C//DTD SVG 20010904//EN"
 "http://www.w3.org/TR/2001/REC-SVG-20010904/DTD/svg10.dtd">
<svg version="1.0" xmlns="http://www.w3.org/2000/svg"
 width="560.000000pt" height="560.000000pt" viewBox="0 0 560.000000 560.000000"
 preserveAspectRatio="xMidYMid meet">
<metadata>
Created by potrace 1.11, written by Peter Selinger 2001-2013
</metadata>
<g transform="translate(0.000000,560.000000) scale(0.100000,-0.100000)"
fill="#000000" stroke="none">
<path d="M2735 5531 c-27 -10 -57 -20 -65 -24 -20 -9 -242 -88 -255 -90 -5 -2
-16 -6 -22 -10 -7 -5 -13 -6 -13 -2 0 3 -17 -3 -37 -14 -21 -10 -40 -18 -43
-18 -7 2 -186 -61 -228 -80 -18 -8 -40 -16 -50 -18 -16 -3 -236 -80 -312 -109
-58 -23 -242 -88 -254 -91 -6 -1 -22 -7 -36 -12 -14 -6 -61 -23 -105 -38 -44
-16 -91 -33 -105 -38 -14 -6 -29 -11 -35 -13 -5 -1 -35 -11 -65 -22 -65 -24
-691 -246 -805 -286 -5 -2 -13 -3 -16 -2 -3 0 -13 -5 -22 -13 -10 -7 -17 -10
-17 -6 0 4 -7 2 -15 -5 -8 -7 -13 -16 -10 -20 3 -4 7 -30 10 -56 2 -27 6 -62
9 -79 2 -16 7 -64 11 -105 4 -41 8 -77 10 -80 1 -3 6 -36 10 -75 3 -38 9 -88
11 -110 3 -22 7 -53 9 -70 3 -31 13 -114 19 -175 2 -19 7 -57 10 -85 4 -27 9
-70 11 -95 3 -25 7 -61 10 -80 6 -38 13 -108 20 -180 5 -53 15 -133 21 -173 2
-15 -1 -47 -7 -70 -19 -65 -23 -85 -50 -232 -11 -60 -22 -166 -25 -235 -5
-117 -18 -189 -33 -174 -3 3 -6 18 -6 32 -1 42 -27 33 -53 -18 -43 -82 -103
-237 -116 -300 -3 -14 -8 -36 -11 -50 -14 -63 -17 -90 -17 -160 0 -64 4 -98
16 -155 5 -23 28 -92 38 -112 6 -12 8 -30 4 -39 -6 -16 -8 -16 -19 6 -7 13
-17 25 -24 27 -17 6 -49 -109 -69 -255 -12 -83 -11 -340 1 -407 20 -107 22
-116 40 -170 54 -164 157 -304 292 -397 82 -57 224 -124 303 -144 74 -18 109
-26 135 -29 111 -15 144 -18 207 -19 38 0 72 2 75 7 2 4 14 5 26 2 12 -3 56 1
97 9 110 22 119 24 130 31 5 3 18 8 27 10 51 9 153 59 154 74 0 10 2 11 6 4 2
-7 9 -13 15 -13 6 0 8 6 5 14 -4 10 0 14 13 11 11 -2 19 -1 19 3 -3 20 2 25
11 12 8 -13 10 -12 10 4 0 11 3 17 6 13 3 -3 15 2 26 11 11 9 31 27 45 39 58
48 64 48 143 4 39 -23 76 -41 81 -41 5 0 9 -4 9 -9 0 -5 12 -14 28 -20 25 -9
51 -24 197 -106 28 -15 75 -41 105 -58 30 -16 64 -35 75 -42 11 -6 45 -26 75
-42 30 -17 137 -76 238 -132 l182 -101 58 31 c31 17 59 34 62 38 3 3 10 7 15
8 6 1 100 52 210 113 231 129 318 177 360 198 17 8 37 20 45 27 8 7 51 31 95
55 44 23 113 60 153 82 83 46 66 50 175 -49 63 -57 184 -128 232 -135 11 -2
22 -6 25 -9 3 -4 50 -15 105 -26 83 -17 134 -20 295 -18 176 2 204 5 290 29
106 29 103 28 145 45 297 119 476 350 533 686 9 51 8 336 -1 395 -23 153 -55
279 -79 308 -9 10 -9 22 0 45 17 48 25 105 26 182 0 113 -13 180 -68 350 -7
22 -21 54 -62 142 -34 72 -47 91 -60 86 -11 -4 -15 -15 -12 -39 3 -23 0 -34
-9 -34 -7 0 -13 3 -14 8 0 4 -2 50 -4 102 -1 52 -3 95 -4 95 -1 0 -4 27 -6 60
-2 33 -6 74 -9 90 -18 114 -40 220 -64 312 -21 77 -20 114 2 282 3 20 8 61 11
91 3 30 7 69 10 85 2 17 6 60 10 96 3 37 8 77 10 89 3 13 7 53 10 89 3 37 7
75 9 86 2 11 7 49 11 85 4 36 9 79 11 95 2 17 6 52 9 80 3 27 7 65 10 85 11
87 19 169 20 213 l0 48 -50 18 c-27 10 -72 26 -100 35 -27 9 -57 20 -65 23 -8
4 -18 7 -22 8 -5 2 -10 4 -13 5 -3 1 -8 3 -12 5 -5 1 -15 4 -23 8 -15 6 -189
67 -270 94 -25 9 -49 20 -54 24 -6 5 -18 9 -28 9 -9 0 -32 6 -50 14 -18 8 -94
36 -168 61 -74 26 -144 51 -155 55 -11 5 -40 16 -65 24 -25 8 -58 20 -75 27
-16 7 -34 13 -40 14 -5 2 -74 26 -152 54 -78 28 -146 51 -151 51 -5 0 -23 7
-41 16 -17 9 -37 17 -44 18 -7 1 -25 7 -42 13 -31 12 -251 91 -405 145 -47 16
-94 33 -105 38 -35 15 -422 150 -426 149 -2 -1 -26 -9 -54 -18z"/>
</g>
</svg>
