<?xml version="1.0" encoding="UTF-8" standalone="no"?>
<svg
   xmlns:dc="http://purl.org/dc/elements/1.1/"
   xmlns:cc="http://creativecommons.org/ns#"
   xmlns:rdf="http://www.w3.org/1999/02/22-rdf-syntax-ns#"
   xmlns:svg="http://www.w3.org/2000/svg"
   xmlns="http://www.w3.org/2000/svg"
   viewBox="0 0 429.33334 186.66667"
   height="186.66667"
   width="429.33334"
   xml:space="preserve"
   id="svg2"
   version="1.1"><metadata
     id="metadata8"><rdf:RDF><cc:Work
         rdf:about=""><dc:format>image/svg+xml</dc:format><dc:type
           rdf:resource="http://purl.org/dc/dcmitype/StillImage" /></cc:Work></rdf:RDF></metadata><defs
     id="defs6" /><g
     transform="matrix(1.3333333,0,0,-1.3333333,0,186.66667)"
     id="g10"><g
       transform="scale(0.1)"
       id="g12"><path
         id="path14"
         style="fill:#231f20;fill-opacity:1;fill-rule:nonzero;stroke:none"
         d="m 1787.44,756.977 c 0,114.371 148.34,132.695 148.34,195.675 0,27.696 -21.44,44.235 -48.26,44.235 -22.77,0 -38.85,-13.828 -46.91,-23.66 -8.48,-8.497 -17.41,-11.622 -26.35,-4.043 l -12.07,9.371 c -9.38,7.168 -11.6,15.664 -4.92,25.035 13.88,18.32 43.34,47.82 95.17,47.82 55.39,0 103.21,-33.95 103.21,-93.847 0,-101.833 -142.07,-119.286 -144.75,-179.141 h 130.91 c 12.49,0 18.76,-6.242 18.76,-18.324 v -12.496 c 0,-12.539 -6.27,-18.786 -18.76,-18.786 h -174.25 c -11.62,0 -20.12,6.247 -20.12,18.786 v 9.375" /><path
         id="path16"
         style="fill:#231f20;fill-opacity:1;fill-rule:nonzero;stroke:none"
         d="m 2047.05,780.676 8.94,13.367 c 6.71,10.289 15.18,10.746 25.47,3.586 10.26,-8.043 28.13,-19.664 52.7,-19.664 30.82,0 59.41,20.582 59.41,54.066 0,33.071 -27.22,54.934 -63.42,54.934 -16.09,0 -29.04,-4.914 -36.63,-8.039 -8.95,-3.125 -16.55,-3.992 -25.02,-0.867 l -4.04,1.328 c -10.26,4.043 -14.71,11.16 -13.84,22.324 l 11.61,126.449 c 0.9,11.63 7.6,17.87 19.23,17.87 h 130.43 c 12.53,0 18.77,-6.71 18.77,-18.74 v -12.54 c 0,-12.04 -6.24,-18.324 -18.77,-18.324 h -98.28 l -4.92,-52.278 c -0.43,-8.449 -2.23,-14.738 -2.23,-14.738 h 0.9 c 0,0 14.75,7.16 33.95,7.16 70.15,0 111.7,-46.898 111.7,-104.082 0,-62.562 -48.71,-108.996 -114.36,-108.996 -44.24,0 -73.73,19.199 -88.9,31.696 -8.97,6.703 -9.4,16.531 -2.7,25.488" /><path
         id="path18"
         style="fill:#231f20;fill-opacity:1;fill-rule:nonzero;stroke:none"
         d="m 2348.67,1017.69 h -47.15 c -6.91,0 -10.37,3.45 -10.37,10.11 v 6.93 c 0,6.66 3.46,10.34 10.37,10.34 h 125.9 c 6.68,0 10.14,-3.68 10.14,-10.34 v -6.93 c 0,-6.66 -3.46,-10.11 -10.14,-10.11 h -47.15 V 880.168 c 0,-6.938 -3.43,-10.383 -10.35,-10.383 h -11.12 c -6.65,0 -10.13,3.445 -10.13,10.383 v 137.522" /><path
         id="path20"
         style="fill:#231f20;fill-opacity:1;fill-rule:nonzero;stroke:none"
         d="m 2469.08,1034.73 c 0,6.66 3.48,10.34 10.14,10.34 h 11.37 c 6.66,0 10.09,-3.68 10.09,-10.34 v -63.937 h 80.26 v 63.937 c 0,6.66 3.45,10.34 10.37,10.34 h 11.12 c 6.66,0 10.11,-3.68 10.11,-10.34 V 880.168 c 0,-6.938 -3.45,-10.383 -10.11,-10.383 h -11.12 c -6.92,0 -10.37,3.445 -10.37,10.383 v 63.199 h -80.26 v -63.199 c 0,-6.938 -3.43,-10.383 -10.09,-10.383 h -11.37 c -6.66,0 -10.14,3.445 -10.14,10.383 v 154.562" /><path
         id="path22"
         style="fill:#231f20;fill-opacity:1;fill-rule:nonzero;stroke:none"
         d="m 1791.46,597.871 c 0,12.035 6.26,18.738 18.33,18.738 h 145.19 c 12.05,0 18.75,-6.703 18.75,-18.738 v -12.539 c 0,-12.035 -6.7,-18.328 -18.75,-18.328 h -106.33 v -89.797 h 86.66 c 12.07,0 18.77,-6.25 18.77,-18.281 v -12.543 c 0,-12.031 -6.7,-18.742 -18.77,-18.742 h -86.66 V 318.18 c 0,-12.539 -6.25,-18.782 -18.31,-18.782 h -20.55 c -12.07,0 -18.33,6.243 -18.33,18.782 v 279.691" /><path
         id="path24"
         style="fill:#231f20;fill-opacity:1;fill-rule:nonzero;stroke:none"
         d="m 2029.16,597.871 c 0,12.035 6.27,18.738 18.33,18.738 h 20.56 c 12.05,0 18.3,-6.703 18.3,-18.738 V 349 h 118.4 c 12.51,0 18.75,-6.238 18.75,-18.32 v -12.5 c 0,-12.539 -6.24,-18.782 -18.75,-18.782 h -157.26 c -12.06,0 -18.33,6.243 -18.33,18.782 v 279.691" /><path
         id="path26"
         style="fill:#231f20;fill-opacity:1;fill-rule:nonzero;stroke:none"
         d="m 2396.45,346.75 c 60.76,0 104.54,49.148 104.54,113.504 0,61.644 -43.78,109 -104.54,109 -60.76,0 -104.56,-47.356 -104.56,-109 0,-64.356 43.8,-113.504 104.56,-113.504 z m 0,275.238 c 96.06,0 163.97,-71.058 163.97,-161.734 0,-93.383 -67.91,-166.184 -163.97,-166.184 -96.06,0 -163.97,72.801 -163.97,166.184 0,90.676 67.91,161.734 163.97,161.734" /><path
         id="path28"
         style="fill:#231f20;fill-opacity:1;fill-rule:nonzero;stroke:none"
         d="m 2760.16,346.75 c 60.78,0 104.55,49.148 104.55,113.504 0,61.644 -43.77,109 -104.55,109 -60.75,0 -104.54,-47.356 -104.54,-109 0,-64.356 43.79,-113.504 104.54,-113.504 z m 0,275.238 c 96.07,0 163.98,-71.058 163.98,-161.734 0,-93.383 -67.91,-166.184 -163.98,-166.184 -96.04,0 -163.95,72.801 -163.95,166.184 0,90.676 67.91,161.734 163.95,161.734" /><path
         id="path30"
         style="fill:#231f20;fill-opacity:1;fill-rule:nonzero;stroke:none"
         d="m 3087.71,467.836 c 30.83,0 50.02,19.199 50.02,50.48 0,20.118 -7.57,36.196 -25.01,43.36 -7.6,3.582 -17.43,5.328 -34.4,5.328 h -42.44 v -99.168 z m -109.02,130.035 c 0,12.035 6.27,18.738 18.32,18.738 h 85.78 c 31.26,0 46.9,-2.66 60.32,-8.496 32.17,-13.367 53.16,-43.773 53.16,-86.672 0,-37.531 -19.66,-73.265 -52.73,-86.675 v -0.875 c 0,0 4.02,-4.914 10.29,-16.536 l 52.27,-95.585 c 7.61,-12.961 1.79,-22.372 -12.96,-22.372 h -24.13 c -10.26,0 -16.98,4.043 -21.88,12.954 l -55.86,105.461 h -55.39 V 318.18 c 0,-12.539 -6.25,-18.782 -18.32,-18.782 h -20.55 c -12.05,0 -18.32,6.243 -18.32,18.782 v 279.691" /><path
         id="path32"
         style="fill:#231f20;fill-opacity:1;fill-rule:nonzero;stroke:none"
         d="m 1062.36,780.605 c -6.94,6.891 -13.16,9.844 -20.8,9.844 -2.38,0 -5.1,-0.394 -8.03,-0.984 -1.33,-0.203 -2.63,-0.504 -3.94,-0.86 -0.21,-0.058 -0.37,-0.074 -0.61,-0.136 l -31.082,-8.996 c -4.851,-1.45 -8.171,-4.539 -9.277,-8.68 -1.531,-5.797 1.281,-12.984 7.797,-19.855 l 16.542,-16.27 c 0.67,-0.805 1.26,-1.676 2.02,-2.426 l 126.91,-124.469 c 0,0 -408.003,-100.238 -414.429,-102.003 -7.578,-2.075 -11.992,-5.348 -13.106,-9.774 -1.445,-5.726 3.262,-10.426 3.79,-10.941 l 25.722,-25.559 c 1.172,-1.367 2.442,-2.621 3.789,-3.773 l 4.18,-4.145 c 3.398,-3.254 9.023,-5.379 14.387,-5.379 1.394,0 2.742,0.168 3.972,0.465 l 446.445,110.211 c 11.84,2.934 21.17,12.051 24.4,23.816 3.2,11.786 -0.2,24.372 -8.91,32.922 l -169.77,166.992" /><path
         id="path34"
         style="fill:#231f20;fill-opacity:1;fill-rule:nonzero;stroke:none"
         d="m 1584.57,1028.94 c 0,9.01 -3.6,17.65 -10.04,23.98 l -331.89,326.98 c -8.3,8.18 -20.27,11.5 -31.61,8.73 L 546.492,1226.46 c -15.054,-3.67 -25.652,-17.14 -25.691,-32.63 l -0.371,-157.51 -0.117,-59.617 c 0,-10.824 8.828,-19.64 19.667,-19.64 h 13.938 0.086 14.16 c 10.82,0 19.649,8.816 19.649,19.64 l 0.234,174.207 142.082,-139.19 c 6.941,-6.88 13.152,-9.84 20.809,-9.84 2.421,0 5.195,0.41 8.203,1.02 0.886,0.15 35.449,9.96 35.449,9.96 4.863,1.45 8.164,4.54 9.277,8.68 1.543,5.8 -1.269,12.99 -7.781,19.85 L 651.719,1182.81 1208.75,1318.74 1460.94,1070.3 252.148,771.352 c -11.875,-2.946 -21.23,-12.082 -24.433,-23.891 -3.184,-11.813 0.273,-24.43 9.043,-32.957 L 772.207,194.102 316.348,81.3008 110.84,283.078 c 0,0 302.598,74.32 310.137,76.391 7.578,2.07 11.992,5.351 13.125,9.769 1.425,5.731 -3.274,10.434 -3.809,10.953 l -33.684,33.469 c -3.386,3.254 -9.031,5.379 -14.382,5.379 -1.387,0 -2.735,-0.168 -3.973,-0.465 l -7.656,-1.894 c 0,0 -0.032,-0.004 -0.051,-0.008 L 36.1445,333.969 C 24.2969,331.039 14.9609,321.93 11.7461,310.16 8.53516,298.391 11.9336,285.801 20.6445,277.25 L 282.578,20.0586 c 6.367,-6.25 14.883,-9.6367 23.594,-9.6367 2.695,0 5.41,0.3164 8.086,0.9765 l 533,131.8826 c 11.875,2.949 21.219,12.098 24.422,23.899 3.183,11.808 -0.274,24.422 -9.043,32.949 l -535.442,520.394 1190.035,294.317 -0.1,-216.727 c 0,-10.828 8.82,-19.644 19.67,-19.644 h 28.18 c 10.82,0 19.65,8.816 19.65,19.644 l -0.06,230.827" /></g></g></svg>