<svg id="Ebene_1" data-name="Ebene 1" xmlns="http://www.w3.org/2000/svg" viewBox="0 0 200 82"><title>anexia</title><rect width="200" height="82" style="fill:#003ca6"/><path d="M47.59,60.21H42.11l-.42-.43.12-3.26h-.25a9.91,9.91,0,0,1-8.3,4.3C29,60.82,25,59.1,25,52.21s5.23-9.29,10.71-9.29h6V40.16c0-2.77-2-4.37-5.42-4.37a78.85,78.85,0,0,0-8.55.61L27.29,36V31.3a91.38,91.38,0,0,1,10-.62c4.67,0,10.27,1.23,10.27,8.12ZM41.69,47.6H37.32c-4.19,0-6.34.92-6.34,4.25s2.34,3.87,4.49,3.87a7.35,7.35,0,0,0,6.22-3.08Z" style="fill:#fff"/><path d="M76.81,60.21H70.9V39.73c0-3.2-1.78-3.94-4.12-3.94-2.09,0-4.12.92-6.58,3.75V60.21h-6V31.3h5.54l.43.43L60.08,35h.24a9.77,9.77,0,0,1,8.25-4.31c4.67,0,8.24,1.78,8.24,8.67Z" style="fill:#fff"/><path d="M104.25,47.6H88.81v3c0,4.43,2.88,4.92,6.33,4.92a57,57,0,0,0,7.75-.61l.43.43v4.86a80.15,80.15,0,0,1-9.59.61c-5.11,0-10.89-1.59-10.89-8.48V39.85c0-7.2,5.84-9.17,11.32-9.17s11.26,1.78,11.26,9.17a56.53,56.53,0,0,1-.56,7.13ZM88.81,39.42v3.5H99a17.6,17.6,0,0,0,.24-3.44c-.12-2.77-2.09-3.69-5-3.69C91,35.79,88.81,36.9,88.81,39.42Z" style="fill:#fff"/><path d="M134.33,60.21h-7.14l-5.66-9.72-7.75,13.19h-7.14l11.08-18.11-8.8-14.27H116l5.53,9.59L127,31.3h7.07l-8.8,14.27Z" style="fill:#fff"/><path d="M144.78,31.3V60.21h-6V31.3Z" style="fill:#fff"/><path d="M172.71,60.21h-5.47l-.44-.43.13-3.26h-.25a9.91,9.91,0,0,1-8.3,4.3c-4.25,0-8.24-1.72-8.24-8.61s5.22-9.29,10.7-9.29h6V40.16c0-2.77-2-4.37-5.41-4.37a78.85,78.85,0,0,0-8.55.61l-.43-.43V31.3a91.38,91.38,0,0,1,10-.62c4.67,0,10.27,1.23,10.27,8.12ZM166.8,47.6h-4.36c-4.19,0-6.34.92-6.34,4.25s2.34,3.87,4.49,3.87a7.32,7.32,0,0,0,6.21-3.08Z" style="fill:#fff"/><polygon points="141.83 19.6 143.08 18.25 143.57 20.03 145.31 19.42 144.91 21.22 146.74 21.49 145.55 22.9 147.04 23.99 145.33 24.68 146.15 26.34 144.31 26.16 144.27 28 142.72 27 141.83 28.61 140.93 27 139.39 28 139.34 26.16 137.5 26.34 138.32 24.68 136.61 23.99 138.1 22.9 136.92 21.49 138.74 21.22 138.34 19.42 140.08 20.03 140.57 18.25 141.83 19.6" style="fill:#fff"/></svg>