<?xml version="1.0" encoding="UTF-8"?>
<svg width="278px" height="270px" viewBox="0 0 278 270" version="1.1" xmlns="http://www.w3.org/2000/svg" xmlns:xlink="http://www.w3.org/1999/xlink">
    <!-- Generator: Sketch 55.2 (78181) - https://sketchapp.com -->
    <title>lc-logo_small</title>
    <desc>Created with Sketch.</desc>
    <g id="Page-1" stroke="none" stroke-width="1" fill="none" fill-rule="evenodd">
        <g id="lc-logo_small" fill-rule="nonzero">
            <g id="icon">
                <polygon id="polygon7" fill="#C2C4CA" opacity="0.98" points="253.45 222.18 253.45 252.81 17.42 252.81 17.42 16.78 253.45 16.78 253.45 47.4 270.12 47.4 270.12 0.1 0.74 0.1 0.74 269.48 270.12 269.48 270.12 222.18"></polygon>
                <polygon id="polygon9" fill="#A50D73" points="98.84 186.95 172.02 186.95 172.02 170.26 117.18 170.26 117.18 82.63 98.84 82.63"></polygon>
                <path d="M277.26,170.26 L265.48,158.34 C261.409406,162.218024 256.851069,165.549375 251.92,168.25 C246.841201,170.79949 241.210719,172.05338 235.53,171.9 C230.777072,171.948314 226.070876,170.958614 221.74,169 C217.583066,167.10723 213.856822,164.38486 210.79,161 C207.66694,157.546448 205.239271,153.522969 203.64,149.15 C201.924892,144.49924 201.064398,139.576803 201.1,134.62 C201.060784,129.68894 201.921543,124.792098 203.64,120.17 C205.238493,115.841509 207.667329,111.86705 210.79,108.47 C213.878741,105.135155 217.601277,102.44949 221.74,100.57 C226.0701,98.6079458 230.776329,97.6148258 235.53,97.66 C241.073445,97.5510768 246.561566,98.7790439 251.53,101.24 C256.364319,103.739518 260.827149,106.899848 264.79,110.63 L276.56,97.07 C274.09181,94.6917671 271.45129,92.4991328 268.66,90.51 C265.816654,88.4857482 262.770222,86.763123 259.57,85.37 C256.099282,83.8703307 252.478926,82.7439977 248.77,82.01 C244.486401,81.1863894 240.13194,80.7877887 235.77,80.82 C228.301721,80.726752 220.894345,82.1735051 214.01,85.07 C201.146985,90.5112751 191.020529,100.908106 185.92,113.91 C180.62878,127.473312 180.65378,142.534329 185.99,156.08 C188.514435,162.438074 192.254191,168.243017 197,173.17 C201.789076,178.03207 207.487063,181.905478 213.77,184.57 C220.462984,187.395562 227.665413,188.814944 234.93,188.74 C239.408657,188.779967 243.87934,188.354347 248.27,187.47 C252.10966,186.694027 255.838162,185.444475 259.37,183.75 C262.711866,182.132788 265.884214,180.186501 268.84,177.94 C271.855658,175.618966 274.67212,173.05003 277.26,170.26 L277.26,170.26 Z" id="path11" fill="#414141"></path>
            </g>
        </g>
    </g>
</svg>