<?xml version="1.0" encoding="utf-8"?>
<svg version="1.1" id="Ebene_1" xmlns="http://www.w3.org/2000/svg" xmlns:xlink="http://www.w3.org/1999/xlink" x="0px" y="0px"
	 width="170.079px" height="56.693px" viewBox="0 0 170.079 56.693" enable-background="new 0 0 170.079 56.693"
	 xml:space="preserve">
<polygon fill="#CC082A" points="28.563,20.67 41.561,20.67 57.525,3.187 44.905,3.187 28.563,20.67 "/>
<path fill="#CC082A" d="M106.248,26.827c3.269-2.813,4.563-7.374,4.563-10.338c0-2.128-0.838-13.302-18.397-13.302H71.358v50.702
	h23.109c2.963,0,8.815-0.303,12.161-3.272c4.637-4.175,5.472-8.283,5.472-10.788C112.1,33.519,109.212,29.411,106.248,26.827z
	 M81.847,11.928h12.62c3.344,0,6.311,1.292,6.311,5.778c0,4.18-2.586,5.853-7.148,5.853H81.847V11.928z M94.009,45.147H81.847V32.3
	h14.215c2.129,0,5.929,0,5.929,5.853C101.991,45.147,97.43,45.147,94.009,45.147z"/>
<path fill="#CC082A" d="M157.86,26.827c3.726-2.813,4.563-7.374,4.563-10.338c0-2.128-0.838-13.302-18.472-13.302h-20.979v50.702
	h23.106c2.89,0,8.819-0.303,12.085-3.272c4.714-4.102,5.549-8.283,5.549-10.788C163.713,33.519,160.749,29.411,157.86,26.827z
	 M133.46,11.928h12.619c3.345,0,6.233,1.292,6.233,5.778c0,4.18-2.508,5.853-7.071,5.853H133.46V11.928z M145.622,45.147H133.46
	V32.3h14.289c2.056,0,5.931,0,5.931,5.853C153.68,45.147,148.969,45.147,145.622,45.147z"/>
<path fill="#CC082A" d="M42.016,2.73c-2.66-0.836-5.396-1.293-8.285-1.293c-15.126,0-27.365,11.935-27.365,27.061
	c0,14.522,12.239,26.757,27.365,26.757c14.746,0,26.984-12.235,26.984-26.757c0-6.916-2.508-13.15-6.766-17.938l-7.22,7.677
	c2.203,2.813,3.571,6.385,3.571,10.261c0,8.818-7.6,16.346-16.57,16.346c-9.35,0-16.875-7.528-16.875-16.346
	c0-9.272,7.525-16.646,16.875-16.646L42.016,2.73L42.016,2.73z"/>
</svg>
